<?xml version="1.0" encoding="utf-8"?>
<!-- Generator: Adobe Illustrator 24.3.0, SVG Export Plug-In . SVG Version: 6.00 Build 0)  -->
<svg version="1.1" id="katman_1" xmlns="http://www.w3.org/2000/svg" xmlns:xlink="http://www.w3.org/1999/xlink" x="0px" y="0px"
	 viewBox="0 0 2835.2 1765.7" style="enable-background:new 0 0 2835.2 1765.7;" xml:space="preserve">
<style type="text/css">
	.st0{fill-rule:evenodd;clip-rule:evenodd;fill:#CC222D;}
	.st1{fill-rule:evenodd;clip-rule:evenodd;fill:#FFFFFF;}
	.st2{fill-rule:evenodd;clip-rule:evenodd;}
</style>
<g>
	<path class="st0" d="M528.6,1166.8c156.8,0,284-127.1,284-284c0-156.8-127.1-283.9-284-283.9c-156.8,0-283.9,127.1-283.9,283.9
		C244.7,1039.7,371.8,1166.8,528.6,1166.8L528.6,1166.8z"/>
	<path class="st1" d="M292.1,882.6c0-130.6,105.8-236.4,236.4-236.4s236.4,105.8,236.4,236.4c0,130.5-105.8,236.4-236.4,236.4
		S292.1,1013.2,292.1,882.6z M528.5,1130.4c136.8,0,247.8-110.9,247.8-247.7c0-136.8-110.9-247.7-247.8-247.7
		c-136.8,0-247.7,110.9-247.7,247.7C280.8,1019.5,391.7,1130.4,528.5,1130.4z"/>
	<path class="st1" d="M522.9,757.5h-18.1c-3.4,0-6.1-2.7-6.1-6c0,0,0,0,0,0c0-3.4,2.7-6.2,6.1-6.2h18.1v-54.8h-43.4l10.6,77h-60.7
		c0,0,22.9,149-38.7,273.4c36.7,0.1,80.9,0,80.9,0h-0.2c42.6-114.5,37.8-128.2,37.8-128.2h13.6v-51.2h-13.7c-3.4,0-6.2-2.8-6.2-6.2
		c0-3.4,2.8-6.2,6.2-6.2h13.7V757.5L522.9,757.5z M535.1,757.5h17.6c3.4,0,6.1-2.7,6.1-6c0,0,0,0,0,0c0-3.4-2.7-6.2-6.1-6.2
		c0,0,0,0,0,0h-17.6v-54.8h42.9l-10.4,77h60.8c0,0-23.1,149,38.5,273.4c-36.6,0.1-81,0-81,0c-42.6-114.5-37.7-128.2-37.7-128.2
		h-13.1v-51.2h13.4c3.4,0,6.1-2.8,6.1-6.1c0-3.4-2.7-6.2-6.1-6.2h-13.4V757.5L535.1,757.5z"/>
	<path class="st0" d="M485,923.9c-0.4,0.4-0.8,0.6-1.1,0.9l5.4,20.2c0.8,3.1-1,6.2-4.1,7c-3,0.8-6.2-0.9-7-3.9c0,0,0-0.1,0-0.1
		l-4.9-18.3c-1,0.2-2,0.4-3,0.3c-0.9,0-1.7-0.2-2.5-0.3l-4.9,18.3c-0.9,3.1-4.1,4.8-7.1,3.9c-3-0.9-4.7-3.9-4-6.9l5.4-20
		c-0.4-0.3-0.9-0.6-1.2-1c-3.9-3.9-6-9.2-6-14.6v-82.9c0.1-11.4,9.4-20.6,20.9-20.5c11.3,0.1,20.4,9.3,20.3,20.6v83
		C491.1,914.9,488.9,920.1,485,923.9L485,923.9z"/>
	<path class="st1" d="M461.4,861v48.3c0,2.4,0.9,4.8,2.6,6.5c1.7,1.7,3.9,2.6,6.3,2.6c2.5,0,4.8-1,6.6-2.7c1.7-1.7,2.7-3.9,2.7-6.3
		V861L461.4,861L461.4,861z M479.6,849.5v-23.1c0-5.1-3.9-9.1-8.9-9.1c-5.1-0.1-9.2,4-9.3,9v23.2H479.6z"/>
	<path class="st0" d="M612.4,855.2l-24.8-48.4l-24.8,48.4l19.1,37.2v53.9c0,3.2,2.6,5.7,5.8,5.7c3.2,0,5.7-2.5,5.7-5.7
		c0,0,0,0,0-0.1v-54.1L612.4,855.2z M587.5,878.9l-12.1-23.6l12.1-23.7l12.1,23.7L587.5,878.9z"/>
	<path class="st2" d="M2579.3,949.7V937H984.9v12.7H2579.3L2579.3,949.7z M983,1009h22.5v40.8h54.6V1009h22.5v100.3h-22.5v-43h-54.6
		v43H983L983,1009L983,1009z M1147.3,1009h28.4l51.2,100.3h-26.7l-11.5-22.5H1131l-10.6,22.5h-24.2L1147.3,1009z M1180.6,1070.4
		l-20.8-43.6l-20.8,43.6H1180.6z M1240.2,1009h31.7l56.8,77h0.3v-77h20.3v100.3H1319l-58.2-78.4h-0.3v78.4h-20.3V1009z
		 M1460.5,1041.4c-0.7-14.1-15.1-19.5-26.3-19.5c-21.1,0-40.6,10.7-40.6,36.8c0,18.7,10,36.8,40.8,36.8c8.8,0,16.4-1.2,27.5-4.6
		v-19.2h-32.1v-15.6h54v46.8c-14.3,6.1-36.3,8.9-50.8,8.9c-37.4,0-62.8-16.6-62.8-53.1c0-30,21.3-52.5,60.7-52.5
		c30.3,0,52.9,11.6,52.9,35L1460.5,1041.4L1460.5,1041.4z M1576.7,1077.9c1.2,11.9,10,19.2,27.8,19.2c18.6,0,25.4-8.1,25.4-15.3
		c0-7.2-5.1-10.5-16.3-12.1l-20.6-2.7c-26.6-3.6-35.3-14.9-35.3-28c0-23.2,21.6-32.6,45-32.6c29.3,0,45.1,12.4,45.8,32.7H1626
		c-0.9-13-9.9-17.8-25.5-17.8c-9.3,0-19.5,4.6-19.5,13.8c0,7.8,5.7,10.9,14.6,12.2l28.7,4c23.9,3.3,28.9,17.4,28.9,27.7
		c0,20.7-17.8,32.9-51.8,32.9c-29.1,0-47.2-12.5-47.2-34L1576.7,1077.9L1576.7,1077.9L1576.7,1077.9z M1751.8,1025.4h-56.9v23.6
		h54.9v16.4h-54.9v27.5h59.5v16.4h-82V1009h79.5V1025.4z M1775.8,1009h31.7l56.8,77h0.2v-77h20.3v100.3h-30.3l-58.2-78.4h-0.3v78.4
		h-20.3V1009z M1996.1,1041.4c-0.7-14.1-15.1-19.5-26.3-19.5c-21.1,0-40.7,10.7-40.7,36.8c0,18.7,10,36.8,40.8,36.8
		c8.8,0,16.5-1.2,27.5-4.6v-19.2h-32.1v-15.6h54.1v46.8c-14.4,6.1-36.3,8.9-50.9,8.9c-37.4,0-62.8-16.6-62.8-53.1
		c0-30,21.3-52.5,60.8-52.5c30.2,0,52.9,11.6,52.9,35L1996.1,1041.4L1996.1,1041.4z M2096.3,1009h59c19.8,0,37.2,4.9,37.2,25.6
		c0,12.7-11.6,20.6-24.7,21.4v1c13.1,1.1,29.9,6.4,29.9,25.4c0,11-7.8,27-40.2,27h-61.3L2096.3,1009L2096.3,1009z M2118.8,1093.7
		h31.1c13.8,0,23.6-3.7,23.6-14c0-11.5-12.1-14.3-22.1-14.3h-32.7L2118.8,1093.7L2118.8,1093.7z M2118.8,1049.8h32.1
		c11,0,17.5-3.3,17.5-12.2c0-10.9-10.2-13.1-21.9-13.1h-27.8V1049.8L2118.8,1049.8z M2256.9,1009h28.3l51.3,100.3h-26.7l-11.5-22.5
		h-57.8l-10.6,22.5h-24.1L2256.9,1009z M2290.2,1070.4l-20.9-43.6l-20.8,43.6H2290.2L2290.2,1070.4z M2350.5,1009h31.7l56.8,77h0.3
		v-77h20.3v100.3h-30.3l-58.2-78.4h-0.3v78.4h-20.3L2350.5,1009L2350.5,1009z M2508.9,1009v43.8l42.3-43.8h27.7l-44.2,45.2
		l49.5,55.1h-29.7l-45.5-52.8v52.8h-22.5V1009H2508.9L2508.9,1009z M1586.7,669.3c-5.6,16-3.7,36.1-3.9,53c2.8,3.2,8.2,1.6,12.3,1.6
		c9.6-1,23-6.6,30.2,2.7c1.6,3.9,2.9,8.4,2.5,12.7c-5.1,1.8-11.1,1.7-16,2.4c-9.8,3.3-23.2,2.3-28.1,13.1c-1.4,4.3-1.5,9-0.2,13.4
		l3.1,2.7c13.3-2.7,25,2,37.1,4.3c4.7,4.5,7.4,11.3,7.4,17.7l-2.1,1.4c-14.3-1.4-28.7,0.4-43.1-0.2c-6.1,2.5-6.1,9.5-8.4,14.4
		c-0.6,6.1-4.7,16.2,2.5,20.1c10.5,2.9,21.5-1.8,32.6,0.7c15.4,3.1,35.9,0.6,42.8,17.4c0.3,5.4-1.2,10.1-4,13.9
		c-6,0-11.1-3.7-17.2-4c-18.5-1.5-54.9-5.7-57.4-5.4c-2.6,0.3-23.8,3.3-33,11.3c-6.2,4.1-15,2.1-21.2,5.8
		c-10.1,1.2-20.9,3.3-30.8,0.6c-6.8,0.4-12.1,5.3-18.3,5.9c-2.7-7.8-3.5-16.2-5.1-24.4c-1-3.3,1.2-5.6,3.1-8c4.7-1.9,8,3.9,12.5,4.3
		c12.9,1.7,25-4.7,38.6-5.1l29.8-9.2c6.3-6,7.2-15.8,5.3-24.4c-0.8-0.8-1.6-2.7-3.1-2c-6.9,1.8-14.5,2.4-21.9,3
		c-4.9,1.7-9.2,4.9-14.4,5.7c-6.4-7.1-5.9-17.8-6.1-26.7c6.1-1.6,11.9,1.9,18.7,0.6c9.6-1.8,18.6-4.7,27.5-8.6
		c6.1-5.1,3.7-14.5,2-20.9c-4.7-1.9-10.3-0.4-15,0c-8.2,0.8-16,4.9-24.4,3.5c-5.3-5.1-5.8-12.1-10.1-17.6c-5.2,0.4-5.7,6.4-9.6,8.6
		c-10.9,10.2-26.9,10.6-40.6,13.6c-1-0.9-2.7-0.6-3.1-2.2c2-6,9-9.9,11.1-16.1c5.5-5.5,12.3-10.4,16-17c11.1-11.5,21.1-24,25.2-38.5
		c0.8-2.3-0.6-5.8,2.5-6.6c7.4,0.4,11.1,9.9,17.6,12.7c2.5,1.5,5.3,2.1,7,4.9v3.1c-9.3,7.2-24.4,13.7-21.8,27.9
		c7.4,4.5,17.5,4.9,25.9,4.7c5.5-3.9,12.9-3.5,19.1-6.6c3.6-2.7,3.5-6.9,4.3-11.1c-2.4-16.4,4.1-36.3-6.7-49.9
		c2.2-4.3,8-4.1,12.5-5.5C1575.8,670.2,1583.6,661.8,1586.7,669.3L1586.7,669.3z M2442.4,678.6c3.5,2.3,8.6,4.9,9.9,9.6
		c2.7,7-6.1,3.5-8.6,6.1c-12.5,7.6-15.8,25.6-31.2,29.1c-5.9,2.3-13.3,2.3-19.9,1.6c-1.2-0.6-1.2-1.9-0.6-2.9
		c12.3-12.3,24.6-27.5,33.4-42.7c1.9-3.3-0.4-8.8,4.3-10.3C2435.5,669.6,2437.6,676.4,2442.4,678.6L2442.4,678.6z M2557,679.8
		c0.1,9.4-5.3,17.9-13.8,21.9c-9.2,2.5-17.2,8.2-25.6,12.5c-9.6-1.9-22.4,10-27.5-3c-1.3-6.6-7.4-12.1-5.7-19.3
		c5.9-4.3,13.7,1.7,20.3-1.6c14.7-5.7,29.9-12.1,45.7-15C2553.2,675.9,2557.1,675.9,2557,679.8L2557,679.8z M2587.3,727
		c1,3.9,4.3,7.8,2.9,11.9c-12.9,7-31.8-1-44.1,6.8c-3.9,2.3-2.3,7.4-1.9,10.6c3.5,7.4,10.5,13.4,11.7,21.8
		c2.5,6.8,1.6,14.4,1.8,21.3c3.3,14.8,0,25.3,2.9,40.2c-2,12.5,3.7,23,2,35.3l-1.9,1.7c-18.9-2-38.8,1-55.5-6.2
		c-1.9-1.8-4.7-2.9-5.3-5.5c3.9-3,9.8-2.9,14.5-4.9c7.6-3.5,18.1-3.3,22.2-13.4c5.3-10.8,1-25.6,3.4-37.7
		c-2.6-13.9,2.1-29.7-5.1-41.8c-2.5-4.1-4.1-9-8.6-11.7c-8.6-0.4-14.8,5.3-22.3,7.2c-9.1,2.3-19.3,1.8-25.5,10.2
		c-3.1,1.1-6.2-1-7.7-3.9c-2.7-6.2-3.6-12.9-6.9-18.7c0.4-2.2-1.3-5.3,1.4-6.1c7.8,0.2,14,1.8,21.6,0c31.4-8.7,60.5-30.2,96-21.4
		L2587.3,727L2587.3,727z M2450.5,739.4c0.3,1.8-0.6,3.5-2.2,4.3c-4.8,0.6-9.5-1.6-12.9,1.9c-6.4,7.8-8.2,18.1-6.7,28.3
		c6.7,11.1,9.2,24.8,7.9,38.3c2.9,15.2-2.4,30-3.6,45.1c-1.9,3.7-2.7,9.2-7.6,10.7c-5.7,3.3-13.7,2.7-20.3,1.8
		c-3.3-1.2-0.6-4.5-0.4-6.3c10.9-17.4,13.2-38.3,14.8-59.5c1.2-6.5,2.9-13.9,1-20.7c-4.1-2.7-5.9,4.7-9,5.5
		c-12.7,10.3-23.9,24.2-41.2,23.4c-6.7-0.6-14.7,0.4-20.3-2l0.4-2.9c11.5-6.3,19.5-18.2,30.8-25.2c14.1-7,24.6-22.7,35.7-33.4
		c4.5-8,10.4-15.6,12.9-24.6c1.2-2.3,3.9-1,5.5,0L2450.5,739.4L2450.5,739.4z M1968.2,677.1c4.3,1.2,8.6,4.5,11.3,8.7
		c-1.6,8-13.6,1.4-15.4,10.5c-0.4,6.4,2.5,14.6-1.2,20.3c-6.5,6.4-11.5,13.4-12.9,21.8c-0.2,2,1.4,2.7,2.9,3.7
		c2.6,0.8,4.9-0.6,6.4-3c1.2-2.5-0.2-6.2,3-8c3.9-0.6,8.4-1.2,12.1-0.6c1.1,1.4,1.2,3.6,3.3,4.1c3.6,1,9-2.3,10.3,2
		c0.2,11.9-18.9,12.7-15.2,24.6c1.4,2.9,5.3,1.2,7.3,0.4c3.7-0.6,8.8-4.3,11.7-0.4c1.2,10.5-7,17.3-13.5,24
		c-3.1,2.6-8.4,2.2-9.5,7.1c0,3-1.8,8,1.4,9.8c7-1.8,11.6-9.6,19.1-10.5c3.1,0.2,3.7,3.7,4.7,5.7c-0.2,5.1,3.9,8.8,2.4,13.9
		c-2,1.4-4-0.2-6.1,0c-6.7,3.1-12.5,8.8-19.7,10c-3.2,2.3-3.1,6.6-2.4,9.6c6.1,3.7,11.9-4.5,18.4-1.3c4.7,16.8-13.5,23.8-23.4,32.6
		c-12.1,5.4-25.6,7.4-39.2,8c-5.3,0.9-10,6.8-15.4,3.7c-3.8-3.6-5.7-8.9-4.9-14.1c2.9-2.2,6.2,0.2,9.2,0.4c7.4-1.6,13.6-6.6,20.7-9
		c5.7-2.9,13.6-4.1,16.8-10.4c2-12.4,2.3-25.3,3.5-37.9c-5.1-6.4-12.1,0.4-18,1.2c-4.3-0.4-10.7,8.2-12.7-0.2
		c-0.4-5.5-5.7-9.6-4.1-15.8c3.9-3.4,9.6-3,14.8-3.9c7.3-5.5,21.5-3,23.2-15.2c-0.2-2.2-1.2-4.5-3.5-5.5c-7.2,1-14.6,8-20.9,0.6
		c-16.8,10.7-30.2,31-52.3,27.7c-1.9-1.9,0.6-3.7,1.6-5.5c10.1-15.6,24.6-30,34.1-46.2c15.4-13.1,19-31.2,34.2-44.5
		c2.5-4.3,2.9-12.1,9.9-12.3c4.5-3.3-7-11.3,2.6-9.8L1968.2,677.1L1968.2,677.1z"/>
	<path class="st2" d="M2000.9,711.2c1.9,0.8,2.3,2.9,1.7,4.3c-2,5.5-7.8,7.2-12.3,8.7c-10.2-1.5-11.3-12.8-16.4-19.3
		c0-1.1-0.2-2.2,1-2.9C1983.5,705.1,1992.2,708.6,2000.9,711.2z"/>
	<path class="st2" d="M2079.1,670c6.3,4.9,13.1,9.4,18.4,15.8c1.1,5.1-6.7,5.1-5.7,10c2.5,13.9-4.3,24.6-4.9,37.3
		c-1.9,9.3-3.1,18.8-3.7,28.3c0,1.4,0.5,4.1,2.7,3.7c2.5-1.1,5.5-0.6,7.4,1.4c3.3,4.9,9.6,8.8,9,14.8c-2.3,2.3-5.9,0.8-8.4,2.7
		c-3.9,6.2-8.8,10.9-14.3,15.6c-1,1.4-0.9,3.7-0.4,5.2c10.5,9,21.3,18.2,34.3,22.6c14.6,4.9,29.7,8.4,43.9,14.7
		c0.2,0.2,0.8,0.8,0.6,1.4c-15.6,9.8-36.9,5.3-55,8.6c-10.4,0.8-20.1-3.7-24.3-13.1c-11.9-11.9-19.3-27.1-32.7-36.5
		c0.2-6.2-4.3-10.3-8.4-14.6c-1.4-1-3-2.3-4.7-0.6c-4.9,8.6-1.2,20.9-3.1,30.1c-0.4,6.4-3.5,12.9-0.6,19.1c3.9,0.2,6.8-3.9,10.7-4.9
		c4.7-1.7,8.4-7,13.9-6.1c1.8,3.5-0.4,7.4-1.6,10.6c-6.6,18.4-26.9,30.3-42.7,39.4c-5.5,0.4-8.6,9.6-14.9,5.3
		c-3.7-6.6-15.6-11.3-12.3-20.9c2.9-2.7,7.6,0,10.7-2.2c16.5-6.2,11.6-25.9,16.5-39.4c1.5-10,4.5-19.6,3.3-31
		c-2.7-11.1,1.4-23-1.2-33.6c-0.3-14.7,3.5-29.7-3.1-43.7c-1.6-6.2-4.7-13.2-2-19.9l2-1.2c11.9,6.1,24.6-0.4,34.8-5.9
		c10.9-3.5,20.8-10.1,32.1-13.1L2079.1,670L2079.1,670z M2061.3,695.2l-19.1,9.9c-4.5,2.7-10.7,0.8-13.9,6.6
		c-1.4,4.5-2.3,11.7,1.6,14.8c12.7-3.5,25.5-8,35.3-17.7c0.8-3.9,2.9-8,1.5-12.3C2065.4,694.6,2063.1,695.6,2061.3,695.2z
		 M2056.3,735c-7.1,3.7-14.3,8-22.1,10.1c-4.7,2.6-4.3,8.6-4.5,13.5c0.6,2.9,0.4,7,4.5,6.6l17.6-8c7.8-3.1,6.2-12.3,8.7-18.8
		C2060.3,736.4,2058.4,734.6,2056.3,735L2056.3,735z M2065,769.1c-7.6,2.5-13.3,9.3-20.9,11.9l-0.6,3.9c0.6,3,3.5,5.3,6.1,6.8
		c9.5,5.5,15.2-5.3,22-9.6c1.9-2.9,6.6-5.1,5.2-9.2C2074.6,768.4,2069.1,769.9,2065,769.1z M1945.6,820.7
		c-0.6,10.3-6.9,19.4-16.2,24.3c-8.6,0.8-9-8.4-12.7-13.3c-0.4-5.5,6.6-2.3,9.6-4.1c5.9-2.6,11.3-7.1,18.1-8L1945.6,820.7
		L1945.6,820.7z M1192,730.1c4.7,5.1,18,2.2,14.9,12.5l-9.2,13.9c-1.2,16.2-7.8,30-8.8,46.1c-2.7,5.6-3.5,15.4-11.3,15
		c-5.3-2.9-10,1.6-14.9,2.2c-15,2.4-28.5,10-44.1,8.8c-5.9-1.9-12.7,1-19.1,0.4c-2.7-3.3-1.2-8.2-2.4-12.1
		c-7.2-20.5-8.2-43.5-14.6-64.6c0.4-1.8,1.4-3.3,2.9-4.3c3.3-1.2,7.2-0.2,10.5,0.5c19.7-6.1,37.9-15.8,58.5-20.3
		C1165.7,717.8,1180.1,728,1192,730.1L1192,730.1z M1165.7,743c-19.9,10.5-41,17.4-60.3,28.7c-2,1.9-3,4.7-0.6,6.6
		c5.7,1.6,11.1-1.2,16.8-1.9c11.1-3.7,22-7.4,33-10.8c2.6-1.4,5.1,0.8,6.8,3.1c1.9,5.1-0.7,9.8-3.7,13.7c-14,7.4-29.3,11.1-44.5,15
		c-2.4,0.6-4.3,2.4-5.1,4.7c0,1.8-0.5,4.5,1.6,5.8c8.2,2,17.4,0.6,25.4-1.3c11.3-5.3,29.8-2.7,33.1-18.5
		c-1.2-14.6,5.7-25.6,3.3-40.8C1171.8,744.1,1168.8,742.2,1165.7,743z M1043.9,665.7c0,3.5-3.5,5.6-4.8,8.4
		c-4.9,9.2-0.4,19.9,2.3,28.5c-1.2,14.3,3.7,26.8,5.1,40.4c-1.2,12.3-0.2,24,0.4,36.3c0.4,22.2-1,45.6-1.4,67.7
		c-2,8-0.6,17.7-2.2,25.9c-6.4,12.1-23,7.3-34.5,8.8l-0.6-1.9c12.7-37.3,12.9-78.8,17.4-119.6c1.2-17.7,2.9-36.5,1-54
		c2.9-11.7-0.6-23-7.2-31.8c4.8-4.3,10.9-4.9,15.8-8.8C1037.5,664.2,1042.3,662,1043.9,665.7L1043.9,665.7z M1185.6,677.8
		c1.9,5.6-0.8,11.5-1.2,17.3c-9.4,11.9-22.6,19.9-36.9,22.3c-12.3,11.5-30.6,12.1-46.8,9.8c-8.4-3.4-6.8-13.7-7.4-21.1
		c5.9-3.5,13.3,2.9,19.1-1.9c12.9-5.3,25.6-10.5,39.4-13.6c10.9-3.9,18.3-18.5,31-16L1185.6,677.8L1185.6,677.8z"/>
	<path class="st2" d="M1085.1,701.4c0.4,2.2,1.2,4.9,0.8,7.2c-8.8,4.1-15.6,12.9-25.8,13.5c-4.8-1.2-11.1,0.2-14.2-3.7
		c-1.6-6.5,7.4-7.8,8.8-13.5c3.1-6.4,10.2-9.2,12.1-16C1076,684.4,1078.3,697.3,1085.1,701.4L1085.1,701.4z M1004.5,739.5
		c3.9,11.7,4.3,27.7-0.4,39.2c-4.3,6-12.1,5.3-18.7,5.3c-4.5-0.4-8.8-2.7-11.1-7c-0.2-8.8,6.1-15.2,9.4-22.8
		c5.5-6.2,9-13.6,14.6-19.3C1001.6,733.6,1003.5,737.1,1004.5,739.5z M1215.7,834.3c13.7,0,8.8,15.6,14,23.2c0.2,3.3-3.5,2-5.4,2.9
		c-19.3-6.8-41.4-2-61.6-0.4c-7.2,1.7-13.7,4.9-20.3,8c-17.4,4.2-35.1,7-52.9,8.2c-7.2-2-14.8-0.6-20.9,3.7c-1.8-0.1-3.4-1.3-3.9-3
		c-1.4-7-1-14.8-4.1-21.2c-0.8-2,1.2-3.3,2.4-4.3c3.9-0.8,6.6,1.5,10,1.5c13.9-0.8,27.7,0.4,39.6-5.8c10.3-1.4,19.5-5.9,30.2-6.7
		c15.2-2.1,28.3-12.5,45.5-7.8C1196.7,835.9,1206.7,832.4,1215.7,834.3L1215.7,834.3z"/>
</g>
</svg>
