<?xml version="1.0" encoding="utf-8"?>
<!-- Generator: Adobe Illustrator 22.0.1, SVG Export Plug-In . SVG Version: 6.00 Build 0)  -->
<svg version="1.1" id="Layer_1" xmlns="http://www.w3.org/2000/svg" xmlns:xlink="http://www.w3.org/1999/xlink" x="0px" y="0px"
	 viewBox="0 0 200 50" style="enable-background:new 0 0 200 50;" xml:space="preserve">
<style type="text/css">
	.st0{fill:#CC222D;}
	.st1{fill:#FFFFFF;}
</style>
<g>
	<path class="st0" d="M24.6,49.4c13.2,0,24-10.7,24-24c0-13.2-10.7-24-24-24c-13.2,0-24,10.7-24,24C0.6,38.7,11.4,49.4,24.6,49.4
		L24.6,49.4z"/>
	<path class="st1" d="M4.6,25.4c0-11,8.9-19.9,19.9-19.9s19.9,8.9,19.9,19.9c0,11-8.9,19.9-19.9,19.9S4.6,36.4,4.6,25.4z M24.6,46.3
		c11.5,0,20.9-9.4,20.9-20.9S36.1,4.5,24.6,4.5C13,4.5,3.7,13.9,3.7,25.4S13,46.3,24.6,46.3z"/>
	<path class="st1" d="M24.1,14.9h-1.5c-0.3,0-0.5-0.2-0.5-0.5l0,0c0-0.3,0.2-0.5,0.5-0.5h1.5V9.2h-3.7l0.9,6.5h-5.1
		c0,0,1.9,12.6-3.3,23.1c3.1,0,6.8,0,6.8,0h0C23.4,29.1,23,28,23,28h1.1v-4.3h-1.2c-0.3,0-0.5-0.2-0.5-0.5s0.2-0.5,0.5-0.5h1.2
		L24.1,14.9L24.1,14.9z M25.1,14.9h1.5c0.3,0,0.5-0.2,0.5-0.5l0,0c0-0.3-0.2-0.5-0.5-0.5l0,0h-1.5V9.2h3.6l-0.9,6.5H33
		c0,0-1.9,12.6,3.2,23.1c-3.1,0-6.8,0-6.8,0C25.8,29.1,26.2,28,26.2,28h-1.1v-4.3h1.1c0.3,0,0.5-0.2,0.5-0.5c0-0.3-0.2-0.5-0.5-0.5
		h-1.1V14.9L25.1,14.9z"/>
	<path class="st0" d="M20.9,28.9C20.9,28.9,20.8,29,20.9,28.9l0.4,1.8c0.1,0.3-0.1,0.5-0.3,0.6c-0.3,0.1-0.5-0.1-0.6-0.3v0l-0.4-1.5
		c-0.1,0-0.2,0-0.3,0c-0.1,0-0.1,0-0.2,0L19,30.9c-0.1,0.3-0.3,0.4-0.6,0.3c-0.3-0.1-0.4-0.3-0.3-0.6l0.5-1.7c0,0-0.1-0.1-0.1-0.1
		c-0.3-0.3-0.5-0.8-0.5-1.2v-7c0-1,0.8-1.7,1.8-1.7c1,0,1.7,0.8,1.7,1.7v7C21.4,28.2,21.2,28.6,20.9,28.9L20.9,28.9z"/>
	<path class="st1" d="M18.9,23.6v4.1c0,0.2,0.1,0.4,0.2,0.5c0.1,0.1,0.3,0.2,0.5,0.2c0.2,0,0.4-0.1,0.6-0.2c0.1-0.1,0.2-0.3,0.2-0.5
		v-4.1H18.9L18.9,23.6z M20.5,22.6v-1.9c0-0.4-0.3-0.8-0.8-0.8c-0.4,0-0.8,0.3-0.8,0.8v2L20.5,22.6L20.5,22.6z"/>
	<path class="st0" d="M31.7,23.1L29.6,19l-2.1,4.1l1.6,3.1v4.5c0,0.3,0.2,0.5,0.5,0.5c0.3,0,0.5-0.2,0.5-0.5c0,0,0,0,0,0v-4.6
		L31.7,23.1z M29.6,25.1l-1-2l1-2l1,2L29.6,25.1z"/>
	<path d="M197.6,31.1V30H63.1v1.1H197.6L197.6,31.1z M62.9,36.1h1.9v3.4h4.6v-3.4h1.9v8.5h-1.9v-3.6h-4.6v3.6h-1.9V36.1L62.9,36.1z
		 M76.8,36.1h2.4l4.3,8.5h-2.3l-1-1.9h-4.9l-0.9,1.9h-2L76.8,36.1z M79.6,41.3l-1.8-3.7l-1.8,3.7H79.6z M84.6,36.1h2.7l4.8,6.5h0
		v-6.5h1.7v8.5h-2.6l-4.9-6.6h0v6.6h-1.7V36.1z M103.2,38.8c-0.1-1.2-1.3-1.6-2.2-1.6c-1.8,0-3.4,0.9-3.4,3.1c0,1.6,0.8,3.1,3.4,3.1
		c0.7,0,1.4-0.1,2.3-0.4v-1.6h-2.7v-1.3h4.6V44c-1.2,0.5-3.1,0.8-4.3,0.8c-3.2,0-5.3-1.4-5.3-4.5c0-2.5,1.8-4.4,5.1-4.4
		c2.6,0,4.5,1,4.5,3L103.2,38.8L103.2,38.8z M113,41.9c0.1,1,0.8,1.6,2.3,1.6c1.6,0,2.1-0.7,2.1-1.3c0-0.6-0.4-0.9-1.4-1l-1.7-0.2
		c-2.2-0.3-3-1.3-3-2.4c0-2,1.8-2.8,3.8-2.8c2.5,0,3.8,1,3.9,2.8h-1.9c-0.1-1.1-0.8-1.5-2.2-1.5c-0.8,0-1.6,0.4-1.6,1.2
		c0,0.7,0.5,0.9,1.2,1l2.4,0.3c2,0.3,2.4,1.5,2.4,2.3c0,1.7-1.5,2.8-4.4,2.8c-2.5,0-4-1.1-4-2.9L113,41.9L113,41.9L113,41.9z
		 M127.8,37.5H123v2h4.6v1.4H123v2.3h5v1.4h-6.9v-8.5h6.7L127.8,37.5L127.8,37.5z M129.8,36.1h2.7l4.8,6.5h0v-6.5h1.7v8.5h-2.6
		l-4.9-6.6h0v6.6h-1.7L129.8,36.1L129.8,36.1z M148.4,38.8c-0.1-1.2-1.3-1.6-2.2-1.6c-1.8,0-3.4,0.9-3.4,3.1c0,1.6,0.8,3.1,3.4,3.1
		c0.7,0,1.4-0.1,2.3-0.4v-1.6h-2.7v-1.3h4.6V44c-1.2,0.5-3.1,0.8-4.3,0.8c-3.2,0-5.3-1.4-5.3-4.5c0-2.5,1.8-4.4,5.1-4.4
		c2.5,0,4.5,1,4.5,3L148.4,38.8L148.4,38.8z M156.9,36.1h5c1.7,0,3.1,0.4,3.1,2.2c0,1.1-1,1.7-2.1,1.8v0.1c1.1,0.1,2.5,0.5,2.5,2.1
		c0,0.9-0.7,2.3-3.4,2.3h-5.2L156.9,36.1L156.9,36.1z M158.8,43.2h2.6c1.2,0,2-0.3,2-1.2c0-1-1-1.2-1.9-1.2h-2.8L158.8,43.2
		L158.8,43.2z M158.8,39.5h2.7c0.9,0,1.5-0.3,1.5-1c0-0.9-0.9-1.1-1.8-1.1h-2.3L158.8,39.5L158.8,39.5z M170.4,36.1h2.4l4.3,8.5
		h-2.3l-1-1.9H169l-0.9,1.9h-2L170.4,36.1z M173.2,41.3l-1.8-3.7l-1.8,3.7H173.2L173.2,41.3z M178.3,36.1h2.7l4.8,6.5h0v-6.5h1.7
		v8.5H185l-4.9-6.6h0v6.6h-1.7V36.1L178.3,36.1z M191.7,36.1v3.7l3.6-3.7h2.3l-3.7,3.8l4.2,4.6h-2.5l-3.8-4.5v4.5h-1.9v-8.5H191.7
		L191.7,36.1z M113.9,7.4c-0.5,1.3-0.3,3-0.3,4.5c0.2,0.3,0.7,0.1,1,0.1c0.8-0.1,1.9-0.6,2.5,0.2c0.1,0.3,0.2,0.7,0.2,1.1
		c-0.4,0.2-0.9,0.1-1.3,0.2c-0.8,0.3-2,0.2-2.4,1.1c-0.1,0.4-0.1,0.8,0,1.1l0.3,0.2c1.1-0.2,2.1,0.2,3.1,0.4c0.4,0.4,0.6,1,0.6,1.5
		l-0.2,0.1c-1.2-0.1-2.4,0-3.6,0c-0.5,0.2-0.5,0.8-0.7,1.2c-0.1,0.5-0.4,1.4,0.2,1.7c0.9,0.2,1.8-0.2,2.8,0.1c1.3,0.3,3,0.1,3.6,1.5
		c0,0.5-0.1,0.9-0.3,1.2c-0.5,0-0.9-0.3-1.5-0.3c-1.6-0.1-4.6-0.5-4.8-0.5c-0.2,0-2,0.3-2.8,1c-0.5,0.3-1.3,0.2-1.8,0.5
		c-0.9,0.1-1.8,0.3-2.6,0.1c-0.6,0-1,0.4-1.5,0.5c-0.2-0.7-0.3-1.4-0.4-2.1c-0.1-0.3,0.1-0.5,0.3-0.7c0.4-0.2,0.7,0.3,1.1,0.4
		c1.1,0.1,2.1-0.4,3.3-0.4l2.5-0.8c0.5-0.5,0.6-1.3,0.4-2.1c-0.1-0.1-0.1-0.2-0.3-0.2c-0.6,0.2-1.2,0.2-1.8,0.3
		c-0.4,0.1-0.8,0.4-1.2,0.5c-0.5-0.6-0.5-1.5-0.5-2.3c0.5-0.1,1,0.2,1.6,0.1c0.8-0.2,1.6-0.4,2.3-0.7c0.5-0.4,0.3-1.2,0.2-1.8
		c-0.4-0.2-0.9,0-1.3,0c-0.7,0.1-1.3,0.4-2.1,0.3c-0.4-0.4-0.5-1-0.9-1.5c-0.4,0-0.5,0.5-0.8,0.7c-0.9,0.9-2.3,0.9-3.4,1.1
		c-0.1-0.1-0.2-0.1-0.3-0.2c0.2-0.5,0.8-0.8,0.9-1.4c0.5-0.5,1-0.9,1.3-1.4c0.9-1,1.8-2,2.1-3.2c0.1-0.2-0.1-0.5,0.2-0.6
		c0.6,0,0.9,0.8,1.5,1.1c0.2,0.1,0.4,0.2,0.6,0.4v0.3c-0.8,0.6-2.1,1.2-1.8,2.4c0.6,0.4,1.5,0.4,2.2,0.4c0.5-0.3,1.1-0.3,1.6-0.6
		c0.3-0.2,0.3-0.6,0.4-0.9c-0.2-1.4,0.3-3.1-0.6-4.2c0.2-0.4,0.7-0.3,1.1-0.5C112.9,7.5,113.6,6.8,113.9,7.4L113.9,7.4z M186.1,8.2
		c0.3,0.2,0.7,0.4,0.8,0.8c0.2,0.6-0.5,0.3-0.7,0.5c-1.1,0.6-1.3,2.2-2.6,2.5c-0.5,0.2-1.1,0.2-1.7,0.1c-0.1-0.1-0.1-0.2-0.1-0.2
		c1-1,2.1-2.3,2.8-3.6c0.2-0.3,0-0.7,0.4-0.9C185.5,7.5,185.7,8,186.1,8.2L186.1,8.2z M195.7,8.3c0,0.8-0.4,1.5-1.2,1.8
		c-0.8,0.2-1.5,0.7-2.2,1.1c-0.8-0.2-1.9,0.8-2.3-0.3c-0.1-0.6-0.6-1-0.5-1.6c0.5-0.4,1.2,0.1,1.7-0.1c1.2-0.5,2.5-1,3.9-1.3
		C195.4,8,195.7,8,195.7,8.3L195.7,8.3z M198.3,12.3c0.1,0.3,0.4,0.7,0.2,1c-1.1,0.6-2.7-0.1-3.7,0.6c-0.3,0.2-0.2,0.6-0.2,0.9
		c0.3,0.6,0.9,1.1,1,1.8c0.2,0.6,0.1,1.2,0.2,1.8c0.3,1.2,0,2.1,0.2,3.4c-0.2,1.1,0.3,1.9,0.2,3l-0.2,0.1c-1.6-0.2-3.3,0.1-4.7-0.5
		c-0.2-0.2-0.4-0.2-0.4-0.5c0.3-0.3,0.8-0.2,1.2-0.4c0.6-0.3,1.5-0.3,1.9-1.1c0.4-0.9,0.1-2.2,0.3-3.2c-0.2-1.2,0.2-2.5-0.4-3.5
		c-0.2-0.3-0.3-0.8-0.7-1c-0.7,0-1.2,0.4-1.9,0.6c-0.8,0.2-1.6,0.2-2.2,0.9c-0.3,0.1-0.5-0.1-0.6-0.3c-0.2-0.5-0.3-1.1-0.6-1.6
		c0-0.2-0.1-0.4,0.1-0.5c0.7,0,1.2,0.2,1.8,0c2.6-0.7,5.1-2.5,8.1-1.8L198.3,12.3L198.3,12.3z M186.7,13.3c0,0.2-0.1,0.3-0.2,0.4
		c-0.4,0.1-0.8-0.1-1.1,0.2c-0.5,0.7-0.7,1.5-0.6,2.4c0.6,0.9,0.8,2.1,0.7,3.2c0.2,1.3-0.2,2.5-0.3,3.8c-0.2,0.3-0.2,0.8-0.6,0.9
		c-0.5,0.3-1.2,0.2-1.7,0.2c-0.3-0.1-0.1-0.4,0-0.5c0.9-1.5,1.1-3.2,1.2-5c0.1-0.5,0.2-1.2,0.1-1.7c-0.3-0.2-0.5,0.4-0.8,0.5
		c-1.1,0.9-2,2-3.5,2c-0.6-0.1-1.2,0-1.7-0.2l0-0.2c1-0.5,1.6-1.5,2.6-2.1c1.2-0.6,2.1-1.9,3-2.8c0.4-0.7,0.9-1.3,1.1-2.1
		c0.1-0.2,0.3-0.1,0.5,0L186.7,13.3L186.7,13.3z M146.1,8.1c0.4,0.1,0.7,0.4,1,0.7c-0.1,0.7-1.1,0.1-1.3,0.9c0,0.5,0.2,1.2-0.1,1.7
		c-0.5,0.5-1,1.1-1.1,1.8c0,0.2,0.1,0.2,0.2,0.3c0.2,0.1,0.4-0.1,0.5-0.3c0.1-0.2,0-0.5,0.3-0.7c0.3-0.1,0.7-0.1,1-0.1
		c0.1,0.1,0.1,0.3,0.3,0.3c0.3,0.1,0.8-0.2,0.9,0.2c0,1-1.6,1.1-1.3,2.1c0.1,0.2,0.4,0.1,0.6,0c0.3-0.1,0.7-0.4,1,0
		c0.1,0.9-0.6,1.5-1.1,2c-0.3,0.2-0.7,0.2-0.8,0.6c0,0.3-0.2,0.7,0.1,0.8c0.6-0.2,1-0.8,1.6-0.9c0.3,0,0.3,0.3,0.4,0.5
		c0,0.4,0.3,0.7,0.2,1.2c-0.2,0.1-0.3,0-0.5,0c-0.6,0.3-1.1,0.7-1.7,0.8c-0.3,0.2-0.3,0.6-0.2,0.8c0.5,0.3,1-0.4,1.6-0.1
		c0.4,1.4-1.1,2-2,2.8c-1,0.5-2.2,0.6-3.3,0.7c-0.4,0.1-0.8,0.6-1.3,0.3c-0.3-0.3-0.5-0.8-0.4-1.2c0.2-0.2,0.5,0,0.8,0
		c0.6-0.1,1.1-0.6,1.7-0.8c0.5-0.2,1.1-0.3,1.4-0.9c0.2-1,0.2-2.1,0.3-3.2c-0.4-0.5-1,0-1.5,0.1c-0.4,0-0.9,0.7-1.1,0
		c0-0.5-0.5-0.8-0.3-1.3c0.3-0.3,0.8-0.3,1.2-0.3c0.6-0.5,1.8-0.3,2-1.3c0-0.2-0.1-0.4-0.3-0.5c-0.6,0.1-1.2,0.7-1.8,0.1
		c-1.4,0.9-2.5,2.6-4.4,2.3c-0.2-0.2,0.1-0.3,0.1-0.5c0.9-1.3,2.1-2.5,2.9-3.9c1.3-1.1,1.6-2.6,2.9-3.8c0.2-0.4,0.2-1,0.8-1
		c0.4-0.3-0.6-1,0.2-0.8L146.1,8.1L146.1,8.1z"/>
	<path d="M148.8,11c0.2,0.1,0.2,0.2,0.1,0.4c-0.2,0.5-0.7,0.6-1,0.7c-0.9-0.1-1-1.1-1.4-1.6c0-0.1,0-0.2,0.1-0.2
		C147.3,10.5,148.1,10.7,148.8,11z"/>
	<path d="M155.4,7.5c0.5,0.4,1.1,0.8,1.6,1.3c0.1,0.4-0.6,0.4-0.5,0.8c0.2,1.2-0.4,2.1-0.4,3.1c-0.2,0.8-0.3,1.6-0.3,2.4
		c0,0.1,0,0.3,0.2,0.3c0.2-0.1,0.5-0.1,0.6,0.1c0.3,0.4,0.8,0.7,0.8,1.2c-0.2,0.2-0.5,0.1-0.7,0.2c-0.3,0.5-0.7,0.9-1.2,1.3
		c-0.1,0.1-0.1,0.3,0,0.4c0.9,0.8,1.8,1.5,2.9,1.9c1.2,0.4,2.5,0.7,3.7,1.2c0,0,0.1,0.1,0.1,0.1c-1.3,0.8-3.1,0.4-4.6,0.7
		c-0.9,0.1-1.7-0.3-2.1-1.1c-1-1-1.6-2.3-2.8-3.1c0-0.5-0.4-0.9-0.7-1.2c-0.1-0.1-0.3-0.2-0.4-0.1c-0.4,0.7-0.1,1.8-0.3,2.5
		c0,0.5-0.3,1.1-0.1,1.6c0.3,0,0.6-0.3,0.9-0.4c0.4-0.1,0.7-0.6,1.2-0.5c0.2,0.3,0,0.6-0.1,0.9c-0.6,1.6-2.3,2.6-3.6,3.3
		c-0.5,0-0.7,0.8-1.3,0.4c-0.3-0.6-1.3-1-1-1.8c0.2-0.2,0.6,0,0.9-0.2c1.4-0.5,1-2.2,1.4-3.3c0.1-0.8,0.4-1.7,0.3-2.6
		c-0.2-0.9,0.1-1.9-0.1-2.8c0-1.2,0.3-2.5-0.3-3.7c-0.1-0.5-0.4-1.1-0.2-1.7l0.2-0.1c1,0.5,2.1,0,2.9-0.5c0.9-0.3,1.8-0.9,2.7-1.1
		L155.4,7.5L155.4,7.5z M153.9,9.6l-1.6,0.8c-0.4,0.2-0.9,0.1-1.2,0.6c-0.1,0.4-0.2,1,0.1,1.2c1.1-0.3,2.2-0.7,3-1.5
		c0.1-0.3,0.2-0.7,0.1-1C154.3,9.6,154.1,9.7,153.9,9.6z M153.5,13c-0.6,0.3-1.2,0.7-1.9,0.9c-0.4,0.2-0.4,0.7-0.4,1.1
		c0.1,0.2,0,0.6,0.4,0.6l1.5-0.7c0.7-0.3,0.5-1,0.7-1.6C153.8,13.1,153.7,12.9,153.5,13L153.5,13z M154.2,15.9
		c-0.6,0.2-1.1,0.8-1.8,1l-0.1,0.3c0.1,0.3,0.3,0.4,0.5,0.6c0.8,0.5,1.3-0.4,1.9-0.8c0.2-0.2,0.6-0.4,0.4-0.8
		C155,15.8,154.6,15.9,154.2,15.9z M144.1,20.2c-0.1,0.9-0.6,1.6-1.4,2.1c-0.7,0.1-0.8-0.7-1.1-1.1c0-0.5,0.6-0.2,0.8-0.3
		c0.5-0.2,1-0.6,1.5-0.7L144.1,20.2L144.1,20.2z M80.6,12.6c0.4,0.4,1.5,0.2,1.3,1.1L81,14.8c-0.1,1.4-0.7,2.5-0.7,3.9
		c-0.2,0.5-0.3,1.3-1,1.3c-0.4-0.2-0.8,0.1-1.3,0.2c-1.3,0.2-2.4,0.8-3.7,0.7c-0.5-0.2-1.1,0.1-1.6,0c-0.2-0.3-0.1-0.7-0.2-1
		c-0.6-1.7-0.7-3.7-1.2-5.5c0-0.2,0.1-0.3,0.2-0.4c0.3-0.1,0.6,0,0.9,0c1.7-0.5,3.2-1.3,4.9-1.7C78.3,11.5,79.6,12.4,80.6,12.6
		L80.6,12.6z M78.3,13.7c-1.7,0.9-3.5,1.5-5.1,2.4c-0.2,0.2-0.3,0.4-0.1,0.6c0.5,0.1,0.9-0.1,1.4-0.2c0.9-0.3,1.9-0.6,2.8-0.9
		c0.2-0.1,0.4,0.1,0.6,0.3c0.2,0.4-0.1,0.8-0.3,1.2c-1.2,0.6-2.5,0.9-3.8,1.3c-0.2,0.1-0.4,0.2-0.4,0.4c0,0.2,0,0.4,0.1,0.5
		c0.7,0.2,1.5,0.1,2.1-0.1c1-0.4,2.5-0.2,2.8-1.6c-0.1-1.2,0.5-2.2,0.3-3.4C78.9,13.7,78.6,13.6,78.3,13.7z M68.1,7.1
		c0,0.3-0.3,0.5-0.4,0.7c-0.4,0.8,0,1.7,0.2,2.4c-0.1,1.2,0.3,2.3,0.4,3.4c-0.1,1,0,2,0,3.1c0,1.9-0.1,3.8-0.1,5.7
		c-0.2,0.7-0.1,1.5-0.2,2.2c-0.5,1-1.9,0.6-2.9,0.7l-0.1-0.2c1.1-3.1,1.1-6.6,1.5-10.1c0.1-1.5,0.2-3.1,0.1-4.6
		c0.2-1-0.1-1.9-0.6-2.7c0.4-0.4,0.9-0.4,1.3-0.7C67.5,7,67.9,6.8,68.1,7.1L68.1,7.1z M80,8.1c0.2,0.5-0.1,1-0.1,1.5
		c-0.8,1-1.9,1.7-3.1,1.9c-1,1-2.6,1-3.9,0.8c-0.7-0.3-0.6-1.2-0.6-1.8c0.5-0.3,1.1,0.2,1.6-0.2c1.1-0.4,2.2-0.9,3.3-1.1
		c0.9-0.3,1.5-1.6,2.6-1.3L80,8.1L80,8.1z"/>
	<path d="M71.5,10.1c0,0.2,0.1,0.4,0.1,0.6c-0.7,0.3-1.3,1.1-2.2,1.1c-0.4-0.1-0.9,0-1.2-0.3c-0.1-0.5,0.6-0.7,0.7-1.1
		c0.3-0.5,0.9-0.8,1-1.4C70.8,8.7,71,9.8,71.5,10.1L71.5,10.1z M64.7,13.4c0.3,1,0.4,2.3,0,3.3c-0.4,0.5-1,0.4-1.6,0.4
		c-0.4,0-0.7-0.2-0.9-0.6c0-0.7,0.5-1.3,0.8-1.9c0.5-0.5,0.8-1.1,1.2-1.6C64.5,12.9,64.7,13.2,64.7,13.4z M82.6,21.4
		c1.2,0,0.7,1.3,1.2,2c0,0.3-0.3,0.2-0.5,0.2c-1.6-0.6-3.5-0.2-5.2,0c-0.6,0.1-1.2,0.4-1.7,0.7c-1.5,0.4-3,0.6-4.5,0.7
		c-0.6-0.2-1.2-0.1-1.8,0.3c-0.2,0-0.3-0.1-0.3-0.3c-0.1-0.6-0.1-1.2-0.3-1.8c-0.1-0.2,0.1-0.3,0.2-0.4c0.3-0.1,0.6,0.1,0.8,0.1
		c1.2-0.1,2.3,0,3.3-0.5c0.9-0.1,1.6-0.5,2.5-0.6c1.3-0.2,2.4-1.1,3.8-0.7C81,21.5,81.8,21.2,82.6,21.4L82.6,21.4z"/>
</g>
</svg>
